<svg width="365" height="90" viewBox="0 0 365 90" fill="none" xmlns="http://www.w3.org/2000/svg">
<!-- <path d="M 50.68 49.84 L 44.38 49.84 L 44.38 0.84 L 53.69 0.84 L 67.27 31.85 L 80.64 0.84 L 90.16 0.84 L 90.16 49.84 L 83.51 49.84 L 83.51 9.31 L 70.42 38.78 L 63.84 38.78 L 50.68 9.31 L 50.68 49.84 Z M 98.56 45.71 L 101.92 40.11 Q 104.44 42.21 107.59 43.54 Q 110.74 44.87 114.94 44.87 A 19.587 19.587 0 0 0 118.124 44.628 Q 119.819 44.348 121.192 43.745 A 9.59 9.59 0 0 0 122.92 42.77 A 7.196 7.196 0 0 0 124.878 40.737 Q 125.86 39.164 125.86 37.1 A 8.358 8.358 0 0 0 125.624 35.075 A 6.871 6.871 0 0 0 125.02 33.495 A 5.668 5.668 0 0 0 124.18 32.336 Q 123.284 31.362 121.765 30.415 A 22.473 22.473 0 0 0 120.034 29.451 Q 118.187 28.516 115.546 27.496 A 83.007 83.007 0 0 0 114.66 27.16 A 63.289 63.289 0 0 1 111.435 25.809 Q 108.586 24.514 106.61 23.205 A 15.352 15.352 0 0 1 104.448 21.492 Q 103.246 20.337 102.507 19.031 A 9.312 9.312 0 0 1 102.305 18.655 Q 101.01 16.1 101.01 12.6 Q 101.01 9.1 102.935 6.265 A 12.024 12.024 0 0 1 106.053 3.159 A 16.37 16.37 0 0 1 108.605 1.715 Q 111.999 0.161 116.685 0.015 A 31.659 31.659 0 0 1 117.67 0 A 37.027 37.027 0 0 1 121.792 0.219 A 27.607 27.607 0 0 1 125.475 0.875 Q 128.94 1.75 132.23 3.36 L 129.78 9.03 A 22.047 22.047 0 0 0 126.892 7.617 A 29.18 29.18 0 0 0 124.215 6.685 Q 121.03 5.74 117.53 5.74 Q 114.281 5.74 112.001 6.641 A 8.832 8.832 0 0 0 110.25 7.56 A 6.931 6.931 0 0 0 108.736 8.935 A 5.152 5.152 0 0 0 107.59 12.25 Q 107.59 14.07 108.36 15.47 A 4.838 4.838 0 0 0 109.108 16.467 Q 109.895 17.293 111.224 18.093 A 16.452 16.452 0 0 0 111.405 18.2 A 23.102 23.102 0 0 0 112.957 19.021 Q 115.031 20.029 118.23 21.21 A 56.86 56.86 0 0 1 121.715 22.631 Q 124.785 24.01 126.875 25.48 Q 129.485 27.315 130.849 29.409 A 9.961 9.961 0 0 1 131.39 30.345 Q 132.72 32.97 132.72 36.33 A 15.197 15.197 0 0 1 132.253 40.18 A 11.973 11.973 0 0 1 130.445 44.1 A 13.732 13.732 0 0 1 125.593 48.316 A 17.05 17.05 0 0 1 124.145 49 A 21.365 21.365 0 0 1 118.959 50.403 A 28.019 28.019 0 0 1 114.94 50.68 A 33.157 33.157 0 0 1 109.498 50.251 A 26.634 26.634 0 0 1 105.63 49.315 A 26.744 26.744 0 0 1 101.874 47.788 A 19.903 19.903 0 0 1 98.56 45.71 Z M 34.23 2.52 L 32.2 8.12 Q 30.03 7.07 27.755 6.44 A 16.11 16.11 0 0 0 25.611 6.009 Q 24.502 5.86 23.251 5.823 A 28.494 28.494 0 0 0 22.4 5.81 A 14.821 14.821 0 0 0 16.867 6.829 A 13.986 13.986 0 0 0 14.385 8.12 A 14.817 14.817 0 0 0 9.93 12.727 A 18.885 18.885 0 0 0 8.82 14.77 Q 6.79 19.11 6.79 25.27 A 29.304 29.304 0 0 0 7.222 30.419 A 21.65 21.65 0 0 0 8.785 35.56 A 17.974 17.974 0 0 0 11.296 39.64 A 14.996 14.996 0 0 0 14.315 42.42 Q 17.85 44.87 22.4 44.87 A 23.601 23.601 0 0 0 25.18 44.715 Q 26.913 44.509 28.35 44.03 Q 30.87 43.19 33.25 41.86 L 35.28 47.39 A 26.293 26.293 0 0 1 32.134 48.821 A 33.526 33.526 0 0 1 29.365 49.735 A 23.515 23.515 0 0 1 25.89 50.429 Q 24.153 50.649 22.194 50.676 A 40.193 40.193 0 0 1 21.63 50.68 A 22.669 22.669 0 0 1 15.103 49.769 A 19.572 19.572 0 0 1 10.36 47.635 Q 5.46 44.59 2.73 38.955 Q 0 33.32 0 25.55 A 34.561 34.561 0 0 1 0.692 18.489 A 27.122 27.122 0 0 1 2.765 12.285 Q 5.53 6.51 10.605 3.255 A 20.56 20.56 0 0 1 19.482 0.167 A 26.104 26.104 0 0 1 22.47 0 A 31.947 31.947 0 0 1 26.011 0.188 A 24.64 24.64 0 0 1 28.84 0.665 A 26.757 26.757 0 0 1 34.073 2.446 A 24.917 24.917 0 0 1 34.23 2.52 Z" fill="#504B8E"/> -->
<circle cx="53.5" cy="36.5" r="36.5" fill="#D8E3FF"/>
<path d="M3.43651 12.0425C5.63232 12.2316 7.87829 12.7788 9.92735 14.1728C10.4109 14.576 10.9525 14.8862 11.3964 15.3781C11.8405 15.8591 12.3298 16.332 12.7064 16.8622C13.0606 17.3289 13.4047 17.7933 13.7386 18.2771C19.212 18.6508 24.6736 19.3881 30.0833 20.6322C33.8508 21.4791 37.5741 22.6347 41.2594 24.0012C44.4983 25.2983 47.7186 26.8565 50.7235 29.0196C41.603 19.039 31.7885 15.4665 27.1317 13.8558C16.9991 10.3487 7.94427 10.7712 1.39374 12.0144C2.06847 11.9888 2.75431 12.0048 3.43651 12.0425Z" fill="#504B8E"/>
<path d="M29.6337 23.8305C25.952 22.9304 22.2231 22.3062 18.4881 21.7691C17.5835 21.6347 16.679 21.5003 15.7789 21.4008C16.8632 23.1541 17.881 25.0088 18.8113 26.9191C18.9996 27.3051 19.1861 27.7041 19.3743 28.101C24.2552 28.4621 29.1319 29.1347 33.9746 30.2077L36.7441 30.9255L38.1262 31.2952L39.4955 31.7388L42.2324 32.6369C43.1424 32.9849 44.0405 33.3501 44.945 33.7285C48.5316 35.2352 52.0678 37.1267 55.3103 39.7375C57.9671 41.8501 60.4786 44.453 62.4359 47.6648C61.3012 44.9632 59.9406 42.1865 58.3161 39.415C56.192 36.434 53.6627 34.0269 50.9281 32.1159C47.6803 29.8819 44.1793 28.2239 40.5843 26.9698C36.9891 25.7288 33.3354 24.6134 29.6337 23.8305Z" fill="#504B8E"/>
<path d="M54.3269 41.9417C51.1357 39.7237 47.7379 37.9604 44.2168 36.6725L41.5898 35.6714L38.9171 34.8352L37.5757 34.4224L36.2216 34.0836L33.5217 33.406C29.894 32.5894 26.2426 31.9097 22.5698 31.4562C21.9652 31.3629 21.3587 31.2783 20.7504 31.2068C21.1777 32.1843 21.6035 33.0266 22.1355 33.7899C23.4403 35.6508 25.1018 37.0657 26.9724 37.9627C27.9042 38.4265 28.8713 38.7448 29.8922 39.0354L33.0483 39.9197L45.6553 43.6285L51.9336 45.5534C54.1242 46.3634 56.1813 47.6595 58.0231 49.3143C61.5847 52.5155 64.3584 56.8168 66.612 61.4247C65.7823 57.5422 64.462 53.8882 62.6337 50.7675C60.4634 47.0169 57.4857 44.2049 54.3269 41.9417Z" fill="#504B8E"/>
</svg>
